<?xml version="1.0" encoding="UTF-8" standalone="no"?>
<!-- Created with Inkscape (http://www.inkscape.org/) -->

<svg
   xmlns:dc="http://purl.org/dc/elements/1.1/"
   xmlns:cc="http://creativecommons.org/ns#"
   xmlns:rdf="http://www.w3.org/1999/02/22-rdf-syntax-ns#"
   xmlns:svg="http://www.w3.org/2000/svg"
   xmlns="http://www.w3.org/2000/svg"
   xmlns:sodipodi="http://sodipodi.sourceforge.net/DTD/sodipodi-0.dtd"
   xmlns:inkscape="http://www.inkscape.org/namespaces/inkscape"
   width="160mm"
   height="90mm"
   viewBox="0 0 160 90"
   version="1.1"
   id="svg8"
   inkscape:version="0.92.3 (2405546, 2018-03-11)"
   sodipodi:docname="architecture.svg">
  <defs
     id="defs2">
    <inkscape:path-effect
       effect="bspline"
       id="path-effect5478"
       is_visible="true"
       weight="33.333333"
       steps="2"
       helper_size="0"
       apply_no_weight="true"
       apply_with_weight="true"
       only_selected="false" />
    <inkscape:path-effect
       effect="bspline"
       id="path-effect5302"
       is_visible="true"
       weight="33.333333"
       steps="2"
       helper_size="0"
       apply_no_weight="true"
       apply_with_weight="true"
       only_selected="false" />
    <marker
       inkscape:stockid="EmptyTriangleInL"
       orient="auto"
       refY="0.0"
       refX="0.0"
       id="EmptyTriangleInL"
       style="overflow:visible"
       inkscape:isstock="true">
      <path
         id="path4673"
         d="M 5.77,0.0 L -2.88,5.0 L -2.88,-5.0 L 5.77,0.0 z "
         style="fill-rule:evenodd;fill:#ffffff;stroke:#000000;stroke-width:1pt;stroke-opacity:1"
         transform="scale(-0.8) translate(-6,0)" />
    </marker>
    <marker
       inkscape:stockid="EmptyTriangleOutL"
       orient="auto"
       refY="0.0"
       refX="0.0"
       id="EmptyTriangleOutL"
       style="overflow:visible"
       inkscape:isstock="true">
      <path
         id="path4682"
         d="M 5.77,0.0 L -2.88,5.0 L -2.88,-5.0 L 5.77,0.0 z "
         style="fill-rule:evenodd;fill:#ffffff;stroke:#000000;stroke-width:1pt;stroke-opacity:1"
         transform="scale(0.8) translate(-6,0)" />
    </marker>
    <marker
       inkscape:stockid="Arrow2Lstart"
       orient="auto"
       refY="0.0"
       refX="0.0"
       id="Arrow2Lstart"
       style="overflow:visible"
       inkscape:isstock="true">
      <path
         id="path4540"
         style="fill-rule:evenodd;stroke-width:0.625;stroke-linejoin:round;stroke:#000000;stroke-opacity:1;fill:#000000;fill-opacity:1"
         d="M 8.7185878,4.0337352 L -2.2072895,0.016013256 L 8.7185884,-4.0017078 C 6.9730900,-1.6296469 6.9831476,1.6157441 8.7185878,4.0337352 z "
         transform="scale(1.1) translate(1,0)" />
    </marker>
    <marker
       inkscape:stockid="Arrow1Lend"
       orient="auto"
       refY="0.0"
       refX="0.0"
       id="Arrow1Lend"
       style="overflow:visible;"
       inkscape:isstock="true">
      <path
         id="path4525"
         d="M 0.0,0.0 L 5.0,-5.0 L -12.5,0.0 L 5.0,5.0 L 0.0,0.0 z "
         style="fill-rule:evenodd;stroke:#000000;stroke-width:1pt;stroke-opacity:1;fill:#000000;fill-opacity:1"
         transform="scale(0.8) rotate(180) translate(12.5,0)" />
    </marker>
    <marker
       inkscape:stockid="Arrow2Lend"
       orient="auto"
       refY="0.0"
       refX="0.0"
       id="Arrow2Lend"
       style="overflow:visible;"
       inkscape:isstock="true">
      <path
         id="path4543"
         style="fill-rule:evenodd;stroke-width:0.625;stroke-linejoin:round;stroke:#000000;stroke-opacity:1;fill:#000000;fill-opacity:1"
         d="M 8.7185878,4.0337352 L -2.2072895,0.016013256 L 8.7185884,-4.0017078 C 6.9730900,-1.6296469 6.9831476,1.6157441 8.7185878,4.0337352 z "
         transform="scale(1.1) rotate(180) translate(1,0)" />
    </marker>
    <marker
       inkscape:stockid="Arrow1Lstart"
       orient="auto"
       refY="0.0"
       refX="0.0"
       id="Arrow1Lstart"
       style="overflow:visible"
       inkscape:isstock="true">
      <path
         id="path4522"
         d="M 0.0,0.0 L 5.0,-5.0 L -12.5,0.0 L 5.0,5.0 L 0.0,0.0 z "
         style="fill-rule:evenodd;stroke:#000000;stroke-width:1pt;stroke-opacity:1;fill:#000000;fill-opacity:1"
         transform="scale(0.8) translate(12.5,0)" />
    </marker>
    <inkscape:path-effect
       effect="bspline"
       id="path-effect4520"
       is_visible="true"
       weight="33.333333"
       steps="2"
       helper_size="0"
       apply_no_weight="true"
       apply_with_weight="true"
       only_selected="false" />
    <inkscape:path-effect
       effect="bspline"
       id="path-effect5302-3"
       is_visible="true"
       weight="33.333333"
       steps="2"
       helper_size="0"
       apply_no_weight="true"
       apply_with_weight="true"
       only_selected="false" />
    <marker
       inkscape:stockid="EmptyTriangleInL"
       orient="auto"
       refY="0"
       refX="0"
       id="EmptyTriangleInL-6"
       style="overflow:visible"
       inkscape:isstock="true">
      <path
         inkscape:connector-curvature="0"
         id="path4673-7"
         d="M 5.77,0 -2.88,5 V -5 Z"
         style="fill:#ffffff;fill-rule:evenodd;stroke:#000000;stroke-width:1.00000003pt;stroke-opacity:1"
         transform="matrix(-0.8,0,0,-0.8,4.8,0)" />
    </marker>
    <marker
       inkscape:stockid="EmptyTriangleOutL"
       orient="auto"
       refY="0"
       refX="0"
       id="EmptyTriangleOutL-5"
       style="overflow:visible"
       inkscape:isstock="true">
      <path
         inkscape:connector-curvature="0"
         id="path4682-3"
         d="M 5.77,0 -2.88,5 V -5 Z"
         style="fill:#ffffff;fill-rule:evenodd;stroke:#000000;stroke-width:1.00000003pt;stroke-opacity:1"
         transform="matrix(0.8,0,0,0.8,-4.8,0)" />
    </marker>
    <inkscape:path-effect
       effect="bspline"
       id="path-effect4520-5"
       is_visible="true"
       weight="33.333333"
       steps="2"
       helper_size="0"
       apply_no_weight="true"
       apply_with_weight="true"
       only_selected="false" />
  </defs>
  <sodipodi:namedview
     id="base"
     pagecolor="#ffffff"
     bordercolor="#666666"
     borderopacity="1.0"
     inkscape:pageopacity="0.0"
     inkscape:pageshadow="2"
     inkscape:zoom="1.979899"
     inkscape:cx="272.63857"
     inkscape:cy="74.944317"
     inkscape:document-units="mm"
     inkscape:current-layer="layer1"
     showgrid="false"
     inkscape:window-width="1920"
     inkscape:window-height="995"
     inkscape:window-x="0"
     inkscape:window-y="48"
     inkscape:window-maximized="1" />
  <metadata
     id="metadata5">
    <rdf:RDF>
      <cc:Work
         rdf:about="">
        <dc:format>image/svg+xml</dc:format>
        <dc:type
           rdf:resource="http://purl.org/dc/dcmitype/StillImage" />
        <dc:title></dc:title>
      </cc:Work>
    </rdf:RDF>
  </metadata>
  <g
     inkscape:label="Layer 1"
     inkscape:groupmode="layer"
     id="layer1"
     transform="translate(0,-207)">
    <path
       style="fill:none;fill-rule:evenodd;stroke:#000000;stroke-width:0.965;stroke-linecap:butt;stroke-linejoin:miter;stroke-opacity:1;stroke-miterlimit:4;stroke-dasharray:none;marker-start:url(#EmptyTriangleInL);marker-end:url(#EmptyTriangleOutL)"
       d="m 5.8799295,241.00703 c 48.8214965,0 97.6427305,0 146.4637005,0"
       id="path4518"
       inkscape:connector-curvature="0"
       inkscape:path-effect="#path-effect4520"
       inkscape:original-d="m 5.8799295,241.00703 c 48.8214965,-2.6e-4 97.6427305,-2.6e-4 146.4637005,0" />
    <path
       style="fill:none;fill-rule:evenodd;stroke:#000000;stroke-width:6.065;stroke-linecap:butt;stroke-linejoin:miter;stroke-opacity:1;stroke-miterlimit:4;stroke-dasharray:none"
       d="m 12.962572,240.8734 c 44.010646,0 88.021028,0 132.031148,0"
       id="path5300"
       inkscape:connector-curvature="0"
       inkscape:path-effect="#path-effect5302"
       inkscape:original-d="m 12.962572,240.8734 c 44.010646,-2.7e-4 88.021028,-2.7e-4 132.031148,0" />
    <path
       style="fill:none;fill-rule:evenodd;stroke:#000000;stroke-width:0.96499997;stroke-linecap:butt;stroke-linejoin:miter;stroke-miterlimit:4;stroke-dasharray:none;stroke-opacity:1;marker-start:url(#EmptyTriangleInL-6);marker-end:url(#EmptyTriangleOutL-5)"
       d="m 6.6817383,214.68099 c 48.8214967,0 97.6427317,0 146.4637017,0"
       id="path4518-6"
       inkscape:connector-curvature="0"
       inkscape:path-effect="#path-effect4520-5"
       inkscape:original-d="m 6.6817383,214.68099 c 48.8214967,-2.6e-4 97.6427317,-2.6e-4 146.4637017,0" />
    <path
       style="fill:none;fill-rule:evenodd;stroke:#000000;stroke-width:6.06500006;stroke-linecap:butt;stroke-linejoin:miter;stroke-miterlimit:4;stroke-dasharray:none;stroke-opacity:1"
       d="m 13.764381,214.54736 c 44.010646,0 88.021029,0 132.031149,0"
       id="path5300-2"
       inkscape:connector-curvature="0"
       inkscape:path-effect="#path-effect5302-3"
       inkscape:original-d="m 13.764381,214.54736 c 44.010646,-2.7e-4 88.021029,-2.7e-4 132.031149,0" />
    <g
       id="g5737"
       transform="matrix(0.05812807,0,0,0.05630103,11.244813,258.39903)">
      <g
         id="g5657">
	<g
   id="g5655">
		<g
   id="g5653">
			<path
   id="path5607"
   d="m 394.363,14.28 v 0 c 0,-3.653 -1.39,-7.306 -4.183,-10.094 C 387.395,1.395 383.736,0 380.091,0 h -6.126 c -3.648,0 -7.306,1.398 -10.089,4.186 -2.793,2.788 -4.186,6.443 -4.186,10.094 v 20.398 h 34.673 z"
   inkscape:connector-curvature="0" />

			<path
   id="path5609"
   d="M 4.186,242.847 C 1.39,245.629 0,249.283 0,252.941 v 6.118 c 0,3.656 1.393,7.306 4.186,10.097 2.788,2.783 6.443,4.186 10.094,4.186 h 20.398 v -34.68 H 14.28 c -3.653,-0.001 -7.307,1.389 -10.094,4.185 z"
   inkscape:connector-curvature="0" />

			<path
   id="path5611"
   d="M 4.186,182.331 C 1.39,185.119 0,188.772 0,192.42 v 6.123 c 0,3.653 1.393,7.311 4.186,10.102 2.788,2.783 6.443,4.178 10.094,4.178 H 34.678 V 178.145 H 14.28 c -3.653,0 -7.307,1.398 -10.094,4.186 z"
   inkscape:connector-curvature="0" />

			<path
   id="path5613"
   d="M 4.186,121.815 C 1.39,124.603 0,128.256 0,131.909 v 6.118 c 0,3.661 1.393,7.319 4.186,10.097 2.788,2.793 6.443,4.183 10.094,4.183 H 34.678 V 117.634 H 14.28 c -3.653,0.001 -7.307,1.391 -10.094,4.181 z"
   inkscape:connector-curvature="0" />

			<path
   id="path5615"
   d="m 117.629,497.725 c 0,3.648 1.395,7.306 4.186,10.089 2.788,2.793 6.441,4.186 10.094,4.186 h 6.124 c 3.648,0 7.306,-1.393 10.089,-4.186 2.793,-2.783 4.183,-6.443 4.183,-10.089 V 477.327 H 117.63 v 20.398 z"
   inkscape:connector-curvature="0" />

			<path
   id="path5617"
   d="m 273.331,14.28 h 0.003 c 0,-3.653 -1.393,-7.306 -4.175,-10.094 C 266.365,1.395 262.715,0 259.059,0 h -6.118 c -3.658,0 -7.311,1.398 -10.099,4.186 -2.788,2.788 -4.18,6.443 -4.18,10.094 v 20.398 h 34.67 V 14.28 Z"
   inkscape:connector-curvature="0" />

			<path
   id="path5619"
   d="m 333.857,14.28 c 0,-3.653 -1.4,-7.306 -4.183,-10.094 C 326.881,1.395 323.22,0 319.572,0 h -6.123 c -3.651,0 -7.306,1.398 -10.089,4.186 -2.796,2.788 -4.186,6.443 -4.186,10.094 v 20.398 h 34.683 z"
   inkscape:connector-curvature="0" />

			<path
   id="path5621"
   d="m 152.305,14.28 c 0,-3.651 -1.39,-7.306 -4.183,-10.094 C 145.339,1.398 141.681,0 138.033,0 h -6.124 c -3.653,0 -7.306,1.395 -10.094,4.186 -2.79,2.788 -4.186,6.441 -4.186,10.094 v 20.398 h 34.675 V 14.28 Z"
   inkscape:connector-curvature="0" />

			<path
   id="path5623"
   d="M 4.186,363.876 C 1.39,366.659 0,370.317 0,373.975 v 6.116 c 0,3.658 1.393,7.306 4.186,10.099 2.788,2.783 6.443,4.186 10.094,4.186 H 34.678 V 359.69 H 14.28 c -3.653,0 -7.307,1.393 -10.094,4.186 z"
   inkscape:connector-curvature="0" />

			<path
   id="path5625"
   d="m 178.145,497.725 c 0,3.648 1.398,7.306 4.18,10.089 2.788,2.793 6.449,4.186 10.099,4.186 h 6.118 c 3.653,0 7.306,-1.393 10.102,-4.186 2.783,-2.783 4.178,-6.444 4.178,-10.089 v -20.398 h -34.678 v 20.398 z"
   inkscape:connector-curvature="0" />

			<path
   id="path5627"
   d="m 14.28,299.174 c -3.653,0 -7.306,1.39 -10.094,4.186 C 1.39,306.143 0,309.801 0,313.459 v 6.113 c 0,3.661 1.393,7.306 4.186,10.102 2.788,2.783 6.443,4.173 10.094,4.173 h 20.398 v -34.673 z"
   inkscape:connector-curvature="0" />

			<path
   id="path5629"
   d="m 212.823,14.28 v 0 c 0,-3.653 -1.395,-7.306 -4.178,-10.094 C 205.857,1.395 202.196,0 198.543,0 h -6.118 c -3.653,0 -7.311,1.398 -10.099,4.186 -2.783,2.788 -4.18,6.443 -4.18,10.094 v 20.398 h 34.678 V 14.28 Z"
   inkscape:connector-curvature="0" />

			<path
   id="path5631"
   d="m 497.725,359.69 h -20.398 v 0 34.685 h 20.398 c 3.648,0 7.306,-1.403 10.099,-4.186 2.783,-2.796 4.175,-6.443 4.175,-10.099 v -6.116 c 0,-3.658 -1.393,-7.316 -4.175,-10.099 -2.792,-2.792 -6.453,-4.185 -10.099,-4.185 z"
   inkscape:connector-curvature="0" />

			<path
   id="path5633"
   d="m 497.725,238.661 h -20.398 v 0 34.68 h 20.398 c 3.648,0 7.306,-1.403 10.099,-4.186 2.783,-2.793 4.175,-6.444 4.175,-10.097 v -6.118 c 0,-3.658 -1.393,-7.311 -4.175,-10.094 -2.792,-2.792 -6.453,-4.185 -10.099,-4.185 z"
   inkscape:connector-curvature="0" />

			<path
   id="path5635"
   d="m 238.661,497.725 c 0,3.648 1.39,7.306 4.18,10.089 2.788,2.793 6.446,4.186 10.099,4.186 h 6.118 c 3.656,0 7.306,-1.393 10.097,-4.186 2.783,-2.783 4.175,-6.444 4.175,-10.089 v -20.398 h -34.67 v 20.398 z"
   inkscape:connector-curvature="0" />

			<path
   id="path5637"
   d="m 497.725,178.145 h -20.398 v 34.678 h 20.398 c 3.648,0 7.306,-1.395 10.099,-4.178 2.783,-2.788 4.175,-6.449 4.175,-10.102 v -6.123 c 0,-3.648 -1.393,-7.301 -4.175,-10.089 -2.792,-2.788 -6.453,-4.186 -10.099,-4.186 z"
   inkscape:connector-curvature="0" />

			<path
   id="path5639"
   d="m 507.825,121.815 c -2.793,-2.788 -6.454,-4.18 -10.099,-4.18 h -20.398 v 34.673 h 20.398 c 3.648,0 7.306,-1.39 10.099,-4.183 2.783,-2.778 4.175,-6.436 4.175,-10.097 v -6.118 c 0,-3.654 -1.393,-7.307 -4.175,-10.095 z"
   inkscape:connector-curvature="0" />

			<path
   id="path5641"
   d="m 497.725,299.174 h -20.398 v 34.673 h 20.398 c 3.648,0 7.306,-1.39 10.099,-4.173 2.783,-2.796 4.175,-6.443 4.175,-10.102 v -6.113 c 0,-3.661 -1.393,-7.316 -4.175,-10.099 -2.792,-2.796 -6.453,-4.186 -10.099,-4.186 z"
   inkscape:connector-curvature="0" />

			<path
   id="path5643"
   d="m 299.174,497.725 c 0,3.648 1.39,7.306 4.186,10.089 2.783,2.793 6.441,4.186 10.089,4.186 h 6.124 c 3.648,0 7.306,-1.393 10.102,-4.186 2.783,-2.783 4.183,-6.444 4.183,-10.089 v -20.398 h -34.683 v 20.398 z"
   inkscape:connector-curvature="0" />

			<path
   id="path5645"
   d="m 359.69,497.725 c 0,3.648 1.393,7.306 4.186,10.089 2.783,2.793 6.444,4.186 10.089,4.186 h 6.126 c 3.648,0 7.306,-1.393 10.089,-4.186 2.793,-2.783 4.183,-6.444 4.183,-10.089 V 477.327 H 359.69 Z"
   inkscape:connector-curvature="0" />

			<path
   id="path5647"
   d="m 124.076,86.697 -37.384,37.379 v 263.846 l 37.384,37.379 h 263.846 l 37.379,-37.379 V 124.076 L 387.922,86.697 Z m 70.548,186.14 c 0,5.852 -1.108,9.828 -3.297,11.942 -2.197,2.125 -6.382,3.177 -12.549,3.177 h -38.164 c -6.205,0 -10.396,-1.052 -12.577,-3.177 -2.176,-2.115 -3.264,-6.09 -3.264,-11.942 V 239.16 c 0,-5.806 1.091,-9.782 3.264,-11.914 2.181,-2.135 6.369,-3.203 12.577,-3.203 h 38.162 c 6.17,0 10.353,1.068 12.549,3.203 2.189,2.132 3.297,6.108 3.297,11.914 v 6.042 l -14.879,2.36 v -12.093 h -40.1 v 40.458 h 40.102 v -13.724 l 14.879,3.077 z m 99.773,-22.131 c 0,4.311 -1.137,7.45 -3.418,9.405 -2.278,1.958 -5.947,2.934 -11.034,2.934 h -40.031 v 24.911 H 225.28 v -63.913 h 54.666 c 5.084,0 8.755,0.975 11.034,2.931 2.281,1.956 3.418,5.11 3.418,9.464 v 14.268 z m 92.826,22.131 h -0.003 c 0,5.852 -1.083,9.828 -3.254,11.942 -2.181,2.125 -6.374,3.177 -12.588,3.177 h -40.392 c -6.167,0 -10.353,-1.052 -12.552,-3.177 -2.191,-2.115 -3.287,-6.09 -3.287,-11.942 v -48.794 h 14.866 v 51.886 h 42.399 v -51.886 h 14.81 v 48.794 z"
   inkscape:connector-curvature="0" />

			<path
   id="path5649"
   d="m 405.166,54.899 c -1.577,-1.59 -4.71,-2.88 -6.956,-2.88 H 113.789 c -2.245,0 -5.379,1.293 -6.968,2.88 l -51.919,51.927 c -1.59,1.585 -2.888,4.716 -2.888,6.963 V 398.21 c 0,2.245 1.298,5.379 2.888,6.956 l 51.922,51.937 c 1.59,1.59 4.721,2.883 6.968,2.883 h 284.421 c 2.245,0 5.379,-1.293 6.956,-2.883 l 51.927,-51.937 c 1.587,-1.577 2.893,-4.71 2.893,-6.956 V 113.789 c -0.003,-2.245 -1.308,-5.379 -2.895,-6.963 z M 393.838,439.585 H 118.154 L 72.412,393.838 V 118.162 l 45.742,-45.75 h 275.681 l 45.747,45.75 v 275.676 h 0.003 z"
   inkscape:connector-curvature="0" />

			<path
   id="path5651"
   d="m 273.352,235.113 h -33.436 v 16.924 h 33.439 c 2.586,0 4.339,-0.374 5.292,-1.119 0.953,-0.745 1.426,-2.071 1.426,-3.96 v -6.83 c 0,-1.856 -0.474,-3.154 -1.426,-3.899 -0.954,-0.75 -2.707,-1.116 -5.295,-1.116 z"
   inkscape:connector-curvature="0" />

		</g>

	</g>

</g>
      <g
         id="g5659">
</g>
      <g
         id="g5661">
</g>
      <g
         id="g5663">
</g>
      <g
         id="g5665">
</g>
      <g
         id="g5667">
</g>
      <g
         id="g5669">
</g>
      <g
         id="g5671">
</g>
      <g
         id="g5673">
</g>
      <g
         id="g5675">
</g>
      <g
         id="g5677">
</g>
      <g
         id="g5679">
</g>
      <g
         id="g5681">
</g>
      <g
         id="g5683">
</g>
      <g
         id="g5685">
</g>
      <g
         id="g5687">
</g>
    </g>
    <g
       id="g6114"
       transform="matrix(0.04456705,0.04456705,-0.04456705,0.04456705,65.881939,250.66873)">
      <g
         id="g6048">
	<g
   id="g6046">
		<g
   id="g6044">
			<path
   id="path6026"
   d="m 509.35,159.383 -24.125,-24.125 -0.009,-0.013 -0.013,-0.009 -18.092,-18.092 c -1.6,-1.601 -3.77,-2.5 -6.033,-2.5 -2.263,0 -4.433,0.899 -6.033,2.5 -3.336,3.314 -8.725,3.304 -12.049,-0.022 -3.324,-3.326 -3.332,-8.714 -0.018,-12.049 1.601,-1.6 2.5,-3.77 2.5,-6.033 0,-2.263 -0.899,-4.434 -2.5,-6.033 L 418.841,68.87 c -1.6,-1.601 -3.77,-2.5 -6.033,-2.5 -2.263,0 -4.434,0.899 -6.033,2.5 -3.391,3.192 -8.68,3.192 -12.071,0 -3.325,-3.335 -3.325,-8.732 0,-12.067 1.601,-1.6 2.5,-3.77 2.5,-6.033 0,-2.263 -0.899,-4.433 -2.5,-6.033 L 352.467,2.5 C 350.867,0.899 348.697,0 346.434,0 344.171,0 342,0.899 340.4,2.5 L 2.5,340.4 C 0.899,342 0,344.17 0,346.433 c 0,2.263 0.899,4.433 2.5,6.033 l 42.237,42.237 c 1.6,1.601 3.77,2.5 6.033,2.5 2.263,0 4.434,-0.899 6.033,-2.5 3.336,-3.314 8.725,-3.304 12.049,0.022 3.324,3.326 3.332,8.714 0.018,12.049 -1.601,1.6 -2.5,3.77 -2.5,6.033 0,2.263 0.899,4.433 2.5,6.033 l 24.137,24.137 c 1.6,1.601 3.77,2.5 6.033,2.5 2.263,0 4.433,-0.899 6.033,-2.5 3.391,-3.192 8.68,-3.192 12.071,0 3.325,3.335 3.325,8.732 0,12.067 -1.601,1.6 -2.5,3.77 -2.5,6.033 0,2.263 0.899,4.434 2.5,6.033 l 18.092,18.092 0.008,0.013 0.013,0.008 24.125,24.125 c 1.6,1.601 3.77,2.5 6.033,2.5 2.263,0 4.433,-0.899 6.033,-2.5 l 337.9,-337.9 c 1.601,-1.6 2.5,-3.77 2.5,-6.033 0.002,-2.261 -0.897,-4.432 -2.498,-6.032 z M 134.213,460.046 c 4.674,-9.791 2.67,-21.464 -5.002,-29.135 -7.672,-7.671 -19.346,-9.674 -29.136,-4.998 L 85.937,411.775 c 4.675,-9.79 2.673,-21.464 -4.998,-29.136 -7.671,-7.672 -19.345,-9.676 -29.135,-5.002 L 20.6,346.433 346.434,20.6 377.638,51.804 c -4.674,9.791 -2.67,21.464 5.002,29.135 7.672,7.671 19.346,9.674 29.136,4.998 l 14.138,14.138 c -4.675,9.79 -2.673,21.464 4.998,29.136 7.671,7.672 19.345,9.676 29.135,5.002 l 7.069,7.069 -325.835,325.833 z m 31.204,31.204 -12.069,-12.069 12.068,-12.068 12.068,12.07 z m 24.134,-24.134 -12.068,-12.07 277.564,-277.564 12.07,12.068 z m 289.632,-289.632 -12.07,-12.068 12.068,-12.068 12.069,12.069 z"
   inkscape:connector-curvature="0" />

			<path
   id="path6028"
   d="m 62.813,340.404 c -1.576,-1.63 -3.747,-2.551 -6.015,-2.551 -2.268,0 -4.438,0.921 -6.015,2.551 -1.606,1.605 -2.497,3.789 -2.475,6.059 -0.021,2.245 0.872,4.402 2.475,5.975 1.596,1.629 3.778,2.55 6.059,2.558 2.255,-0.009 4.409,-0.932 5.971,-2.558 0.823,-0.759 1.466,-1.693 1.879,-2.733 0.438,-1.026 0.67,-2.127 0.683,-3.242 -0.022,-1.142 -0.253,-2.271 -0.683,-3.329 -0.412,-1.04 -1.055,-1.973 -1.879,-2.73 z"
   inkscape:connector-curvature="0" />

			<path
   id="path6030"
   d="m 346.463,65.375 c 4.665,-0.115 8.419,-3.869 8.533,-8.533 -0.008,-2.28 -0.93,-4.463 -2.558,-6.059 -3.372,-3.202 -8.661,-3.202 -12.033,0 -1.606,1.605 -2.497,3.789 -2.475,6.059 -0.022,2.244 0.872,4.4 2.475,5.971 1.594,1.631 3.776,2.554 6.058,2.562 z"
   inkscape:connector-curvature="0" />

			<path
   id="path6032"
   d="m 129.213,322.3 c -6.667,-6.662 -17.471,-6.662 -24.138,0 l -18.1,18.1 c -6.654,6.67 -6.654,17.467 0,24.138 l 48.271,48.271 c 3.2,3.201 7.54,5 12.067,5 4.527,0 8.867,-1.799 12.067,-5 l 18.104,-18.104 c 3.201,-3.2 5,-7.54 5,-12.067 0,-4.526 -1.799,-8.867 -5,-12.067 z m 36.208,60.333 -0.004,0.004 -18.104,18.104 -48.271,-48.275 18.104,-18.1 48.279,48.258 z"
   inkscape:connector-curvature="0" />

			<path
   id="path6034"
   d="m 183.513,267.987 c -6.67,-6.649 -17.462,-6.647 -24.129,0.004 l -18.104,18.104 c -6.654,6.668 -6.654,17.465 0,24.133 l 48.27,48.272 c 6.669,6.656 17.468,6.656 24.137,0 l 18.1,-18.1 c 3.201,-3.2 5,-7.54 5,-12.067 0,-4.526 -1.799,-8.867 -5,-12.067 z m 18.104,78.446 -48.271,-48.271 18.104,-18.104 48.279,48.267 z"
   inkscape:connector-curvature="0" />

			<path
   id="path6036"
   d="m 237.825,213.692 c -6.75,-6.455 -17.385,-6.457 -24.138,-0.004 l -18.096,18.1 c -3.203,3.199 -5.003,7.541 -5.004,12.068 -10e-4,4.527 1.798,8.869 5,12.07 l 48.271,48.271 c 6.668,6.656 17.466,6.656 24.133,0 l 18.104,-18.1 0.004,-0.004 c 6.647,-6.672 6.645,-17.464 -0.004,-24.133 z m 18.1,78.437 -48.271,-48.271 18.1,-18.104 48.279,48.271 z"
   inkscape:connector-curvature="0" />

			<path
   id="path6038"
   d="m 364.537,86.975 c -6.669,-6.656 -17.468,-6.656 -24.137,0 l -90.508,90.508 c -3.201,3.2 -5,7.54 -5,12.067 0,4.527 1.799,8.867 5,12.067 l 48.275,48.279 c 6.672,6.646 17.463,6.644 24.133,-0.004 l 90.508,-90.513 c 3.201,-3.2 5,-7.54 5,-12.067 0,-4.526 -1.799,-8.867 -5,-12.067 z m 36.209,60.333 -0.004,0.004 -12.071,12.071 -6.033,-6.033 c -2.156,-2.155 -5.297,-2.997 -8.242,-2.208 -2.944,0.789 -5.244,3.089 -6.033,6.033 -0.789,2.944 0.053,6.086 2.208,8.242 l 6.033,6.033 -12.068,12.068 -6.036,-6.034 c -2.156,-2.156 -5.297,-2.997 -8.242,-2.208 -2.945,0.789 -5.244,3.089 -6.033,6.033 -0.789,2.944 0.053,6.086 2.208,8.242 l 6.036,6.034 -12.07,12.07 -6.033,-6.033 c -2.155,-2.155 -5.297,-2.997 -8.242,-2.208 -2.944,0.789 -5.244,3.089 -6.033,6.033 -0.789,2.944 0.053,6.086 2.208,8.242 l 6.033,6.033 -18.104,18.104 -48.271,-48.275 90.513,-90.508 48.279,48.258 z"
   inkscape:connector-curvature="0" />

			<path
   id="path6040"
   d="m 322.3,153.35 -24.137,24.133 c -2.156,2.156 -2.997,5.297 -2.208,8.242 0.789,2.944 3.089,5.244 6.033,6.033 2.944,0.789 6.086,-0.053 8.242,-2.208 l 24.137,-24.133 c 3.332,-3.332 3.332,-8.735 0,-12.067 -3.332,-3.332 -8.735,-3.332 -12.067,0 z"
   inkscape:connector-curvature="0" />

			<path
   id="path6042"
   d="m 343.904,135.262 c 0.032,4.699 3.834,8.501 8.533,8.533 2.259,-0.033 4.422,-0.917 6.059,-2.475 1.591,-1.614 2.481,-3.792 2.475,-6.059 0.01,-1.137 -0.194,-2.267 -0.6,-3.329 -0.443,-1.022 -1.08,-1.949 -1.875,-2.729 -3.351,-3.253 -8.682,-3.253 -12.033,0 -1.615,1.606 -2.534,3.783 -2.559,6.059 z"
   inkscape:connector-curvature="0" />

		</g>

	</g>

</g>
      <g
         id="g6050">
</g>
      <g
         id="g6052">
</g>
      <g
         id="g6054">
</g>
      <g
         id="g6056">
</g>
      <g
         id="g6058">
</g>
      <g
         id="g6060">
</g>
      <g
         id="g6062">
</g>
      <g
         id="g6064">
</g>
      <g
         id="g6066">
</g>
      <g
         id="g6068">
</g>
      <g
         id="g6070">
</g>
      <g
         id="g6072">
</g>
      <g
         id="g6074">
</g>
      <g
         id="g6076">
</g>
      <g
         id="g6078">
</g>
    </g>
  </g>
</svg>
